<?xml version="1.0" encoding="utf-8"?>
<!-- Generator: Adobe Illustrator 16.0.0, SVG Export Plug-In . SVG Version: 6.00 Build 0)  -->
<!DOCTYPE svg PUBLIC "-//W3C//DTD SVG 1.1//EN" "http://www.w3.org/Graphics/SVG/1.1/DTD/svg11.dtd">
<svg version="1.1" id="Layer_1" xmlns="http://www.w3.org/2000/svg" xmlns:xlink="http://www.w3.org/1999/xlink" x="0px" y="0px"
	 width="199.859px" height="125.785px" viewBox="0 0 199.859 125.785" enable-background="new 0 0 199.859 125.785"
	 xml:space="preserve">
<path fill="#fff" d="M59.193,0c5.99,0,11.451,0.528,16.384,1.586c4.933,1.057,9.161,2.791,12.684,5.196
	c3.523,2.408,6.254,5.609,8.192,9.603c1.938,3.994,2.907,8.926,2.907,14.798c0,6.343-1.439,11.628-4.316,15.855
	c-2.879,4.228-7.135,7.692-12.772,10.394c7.751,2.232,13.535,6.139,17.353,11.715c3.814,5.58,5.727,12.305,5.727,20.172
	c0,6.342-1.233,11.834-3.701,16.474c-2.465,4.641-5.785,8.428-9.952,11.36c-4.17,2.938-8.927,5.109-14.27,6.521
	c-5.346,1.408-10.834,2.112-16.472,2.112H0V0H59.193z M55.67,50.915c4.933,0,8.984-1.174,12.156-3.524
	c3.171-2.348,4.756-6.166,4.756-11.451c0-2.935-0.528-5.344-1.585-7.223c-1.057-1.878-2.466-3.349-4.228-4.404
	c-1.762-1.058-3.788-1.789-6.078-2.203c-2.291-0.41-4.669-0.616-7.135-0.616H27.659v29.422H55.67z M57.255,104.293
	c2.7,0,5.285-0.265,7.751-0.793c2.466-0.529,4.638-1.41,6.519-2.644c1.877-1.231,3.375-2.906,4.492-5.021
	c1.115-2.113,1.673-4.814,1.673-8.104c0-6.457-1.822-11.067-5.461-13.828c-3.642-2.76-8.457-4.141-14.446-4.141H27.659v34.529
	L57.255,104.293L57.255,104.293z"/>
<path fill="#fff" d="M140.159,101.651c3.758,3.644,9.161,5.461,16.208,5.461c5.048,0,9.395-1.26,13.035-3.787
	c3.641-2.522,5.873-5.196,6.695-8.016h22.021c-3.522,10.922-8.927,18.734-16.207,23.43c-7.284,4.699-16.093,7.047-26.427,7.047
	c-7.164,0-13.625-1.145-19.379-3.436c-5.756-2.289-10.631-5.549-14.621-9.777c-3.994-4.227-7.077-9.274-9.25-15.149
	c-2.174-5.871-3.258-12.332-3.258-19.379c0-6.81,1.113-13.152,3.347-19.025c2.229-5.871,5.399-10.951,9.514-15.24
	c4.108-4.285,9.013-7.662,14.71-10.129c5.695-2.467,12.008-3.699,18.938-3.699c7.752,0,14.504,1.497,20.261,4.492
	c5.753,2.994,10.481,7.021,14.182,12.067c3.699,5.051,6.369,10.807,8.017,17.264c1.644,6.461,2.229,13.213,1.762,20.26h-65.712
	C134.346,92.137,136.398,98.012,140.159,101.651z M168.434,53.733c-2.994-3.287-7.547-4.933-13.652-4.933
	c-3.994,0-7.311,0.677-9.953,2.026c-2.643,1.353-4.758,3.023-6.344,5.021c-1.584,1.998-2.702,4.113-3.346,6.342
	c-0.647,2.232-1.029,4.229-1.146,5.99h40.695C173.514,61.836,171.43,57.022,168.434,53.733z"/>
<rect x="129.721" y="6.387" fill="#fff" width="50.846" height="14.098"/>
</svg>
