<?xml version="1.0" encoding="utf-8"?>
<!-- Generator: Adobe Illustrator 18.0.0, SVG Export Plug-In . SVG Version: 6.00 Build 0)  -->
<!DOCTYPE svg PUBLIC "-//W3C//DTD SVG 1.1//EN" "http://www.w3.org/Graphics/SVG/1.1/DTD/svg11.dtd">
<svg version="1.1" id="图层_1" xmlns="http://www.w3.org/2000/svg" xmlns:xlink="http://www.w3.org/1999/xlink" x="0px" y="0px"
	 viewBox="0 0 120 120" enable-background="new 0 0 120 120" xml:space="preserve">
<g>
	<polygon fill="#EF8621" points="70.2,53.4 73.9,51.5 76.9,48.4 82.3,57 85.4,54.4 93.5,66 99.7,61.3 111.6,76.4 118,77.4 
		113.1,79.8 106.5,80.5 99.3,84.2 90.4,78.5 83.9,81.5 76.1,79.5 69.1,67.3 	"/>
	<polygon fill="#FFFFFF" points="25.6,56.8 30.4,48.3 30.8,59.4 	"/>
	<polygon fill="#EF8621" points="28.1,81.7 22.9,79 34.6,71.9 37.7,75.7 	"/>
	<polygon fill="#F4E1C3" points="36.5,55.1 33.8,53.6 29.4,66.5 37.2,69.3 	"/>
	<polygon fill="#EF8621" points="44.6,60.9 39.2,59.4 36.8,74.9 43.1,75.2 	"/>
	<polygon fill="#F4E1C3" points="63.1,50.3 70.2,53.4 66.2,55.8 	"/>
	<polygon fill="#F4E1C3" points="60.6,80.7 68.1,88.5 70,82.9 	"/>
	<polygon fill="#FFFFFF" points="50.8,46.3 47.2,59 50.8,57.1 	"/>
	<polygon fill="#F4E1C3" points="37,77.1 33.4,79 34.7,75.5 41.2,73.7 	"/>
	<polygon fill="#FFFFFF" points="58.8,47.9 60.4,44.9 60,48 	"/>
	<polygon fill="#FFFEFA" points="38.3,81.9 37,77.1 41.4,70.3 	"/>
	<polygon fill="#F4E1C3" points="45.2,79.4 41.4,70.3 44.6,60.9 	"/>
	<polygon fill="#FFFBE3" points="38.3,81.9 45.2,79.4 41.4,70.3 	"/>
	<polygon fill="#FFFBE3" points="37,77.1 28.1,81.7 38.3,81.9 	"/>
	<polygon fill="#FFFDF3" points="44.6,60.9 50.5,58.3 44.9,71.3 	"/>
	<polygon fill="#FFFFFF" points="54.8,64.7 50.5,58.3 50.8,46.3 	"/>
	<polygon fill="#F2BE97" points="54.8,64.7 44.9,71.3 50.5,58.3 	"/>
	<path fill="#FFFDF3" d="M56,39.9l4,8.1l-4.9,10.3C55.1,58.3,55.9,40.7,56,39.9z"/>
	<polygon fill="#FFFDF3" points="60,48 60.4,44.9 66.2,55.8 	"/>
	<polygon fill="#F2BE97" points="54.8,64.7 66.2,55.8 60,48 55.4,58.4 	"/>
	<polygon fill="#EF8621" points="54.8,64.7 45.2,79.4 44.9,71.3 	"/>
	<polygon fill="#ED9B58" points="66.2,55.8 65.2,65.6 54.8,64.7 	"/>
	<polygon fill="#ED9B58" points="65.2,65.6 69.1,67.3 68.3,71.6 	"/>
	<polygon fill="#ED9B58" points="54.8,64.7 55.6,70.2 52,75.6 45.2,79.4 	"/>
	<polygon fill="#F2BE97" points="55.6,70.2 68.3,71.6 65.2,65.6 	"/>
	<polygon fill="#EF8621" points="54.8,64.7 65.2,65.6 55.6,70.2 	"/>
	<polygon fill="#EF8621" points="66.2,55.8 69.1,67.3 65.2,65.6 	"/>
	<polygon fill="#F4E1C3" points="60,48 54.8,64.7 55.4,52.7 	"/>
	<polygon fill="#FFFFFF" points="50.8,46.3 56,39.9 54.8,64.5 	"/>
	<polygon fill="#ED9B58" points="28.1,81.7 34.7,75.5 33.4,79 	"/>
	<polygon fill="#ED9B58" points="68.3,71.6 70,82.9 55.6,70.2 	"/>
	<polygon fill="#EF8621" points="45.2,79.4 52,75.6 62.8,78.8 	"/>
	<polygon fill="#ED9B58" points="53.5,79.1 70,82.9 62.8,78.8 	"/>
	<polygon fill="#F2BE97" points="52,75.6 55.6,70.2 70,82.9 	"/>
	<polygon fill="#FFFBE3" points="68.1,88.5 56.1,86.1 60.6,80.7 	"/>
	<polygon fill="#EF8621" points="70,82.9 76.1,79.5 68.3,71.6 	"/>
	<polygon fill="#F2BE97" points="69.1,67.3 76.1,79.5 68.3,71.6 	"/>
	<polygon fill="#F2BE97" points="66.2,55.8 70.2,53.4 69.1,67.3 	"/>
	<polygon fill="#FFFBE3" points="70.2,53.4 72.8,73.7 69.1,67.3 	"/>
	<polygon fill="#F2BE97" points="39.2,59.4 36.5,55.1 36.8,74.9 	"/>
	<polygon fill="#FFFBE3" points="29.4,66.5 36.8,74.9 36.7,69.1 	"/>
	<polygon fill="#F2BE97" points="22.9,79 29.4,66.5 34.3,72.1 	"/>
	<polygon fill="#FFFBE3" points="33.8,53.6 30.4,48.3 29.4,66.5 	"/>
	<polygon fill="#FFFFFF" points="29.4,66.5 25.6,56.8 29.8,58.9 	"/>
	<polygon fill="#F4E1C3" points="25.6,56.8 21.6,58.7 19.5,57.2 15.5,60.5 13.9,67.3 8.1,68.6 2.1,74.7 9.4,76.7 12.7,80.8 
		17.8,78.4 22.9,79 29.4,66.5 	"/>
	<polygon fill="#F2BE97" points="9.4,76.7 8.1,68.6 12.7,80.8 	"/>
	<polygon fill="#EF8621" points="17.8,78.4 25.6,73.7 22.9,79 	"/>
	<polygon fill="#F2BE97" points="29.4,66.5 21.6,58.7 25.6,56.8 	"/>
	<polygon fill="#EF8621" points="25.6,73.7 29.4,66.5 21.6,58.7 	"/>
	<polygon fill="#FFFFFF" points="15.5,60.5 21.6,58.7 22.4,54.6 	"/>
	<polygon fill="#FFFDF3" points="13.9,67.3 21.6,58.7 15.5,60.5 	"/>
	<polygon fill="#FFFBE3" points="21.9,66.6 13.9,67.3 21.6,58.7 	"/>
	<polygon fill="#F2BE97" points="25.6,73.7 21.9,66.6 21.6,58.7 	"/>
	<polygon fill="#ED9B58" points="17.8,78.4 25.6,73.7 21.9,66.6 	"/>
	<polygon fill="#F4E1C3" points="13.9,67.3 17.8,78.4 21.9,66.6 	"/>
	<polygon fill="#ED9B58" points="25.6,56.8 22.4,54.6 21.6,58.7 	"/>
	<polygon fill="#EF8621" points="15.8,72.9 12.7,80.8 17.8,78.4 	"/>
	<polygon fill="#FFFFFF" points="8.1,68.6 13.9,67.3 10.2,74.1 	"/>
	<polygon fill="#FFFBE3" points="15.8,72.9 13.9,67.3 10.2,74.1 	"/>
	<polygon fill="#FFFFFF" points="73.9,51.5 76.9,48.4 76.1,53.8 	"/>
	<polygon fill="#FFFBE3" points="70.2,53.4 73.9,51.5 76.1,53.8 70.4,55.2 	"/>
	<polygon fill="#FFFFFF" points="93.5,66 99.7,61.3 99.7,65.3 	"/>
	<polygon fill="#FFFDF3" points="83.6,58.7 85.4,54.4 86.5,64.3 	"/>
	<polygon fill="#F2BE97" points="111.6,76.4 113.1,79.8 118,77.4 	"/>
	<polygon fill="#F4E1C3" points="106.5,80.5 111.6,76.4 113.1,79.8 	"/>
	<polygon fill="#ED9B58" points="99.7,61.3 99.7,65.3 111.6,76.4 	"/>
	<polygon fill="#EF8621" points="106.5,80.5 99.7,65.3 111.6,76.4 	"/>
	<polygon fill="#F4E1C3" points="99.3,84.2 106.5,80.5 104.1,75.2 	"/>
	<polygon fill="#F2BE97" points="90.4,78.5 93.5,66 86.5,64.3 	"/>
	<polygon fill="#F2BE97" points="83.6,58.7 85.4,54.4 81.8,57.3 	"/>
	<polygon fill="#ED9B58" points="83.6,58.7 76.1,53.8 76.9,48.4 	"/>
	<polygon fill="#F2BE97" points="76.1,79.5 90.4,78.5 83.9,81.5 	"/>
	<polygon fill="#ED9B58" points="44.6,60.9 36.8,74.9 39.2,59.4 	"/>
	<polygon fill="#F2BE97" points="45.2,79.4 56.1,86.1 60.6,80.7 53.5,79.1 	"/>
	<polygon fill="#F2BE97" points="15.8,72.9 21.9,66.6 17.8,78.4 	"/>
	<polygon fill="#F2BE97" points="99.7,65.3 99.3,84.2 104.1,75.2 	"/>
	<polygon fill="#EF8621" points="90.4,78.5 83.6,58.7 86.5,64.3 	"/>
	<polygon fill="#F4E1C3" points="76.1,53.8 90.4,78.5 83.6,58.7 	"/>
	<polygon fill="#F4E1C3" points="71.4,63.3 76.1,53.8 70.2,53.4 	"/>
	<polygon fill="#FFFDF3" points="92,71.9 99.7,65.3 93.5,66 	"/>
	<polygon fill="#FFFBE3" points="99.3,84.2 92,71.9 99.7,65.3 	"/>
	<polygon fill="#F4E1C3" points="90.4,78.5 92,71.9 99.3,84.2 	"/>
	<polygon fill="#F2BE97" points="74.7,62.2 82.1,64.2 76.1,53.8 	"/>
	<polygon fill="#F4E1C3" points="72.8,73.7 82.1,64.2 74.7,62.2 	"/>
	<polygon fill="#F2BE97" points="90.4,78.5 72.8,73.7 82.1,64.2 	"/>
	<polygon fill="#F2BE97" points="74.7,62.2 72.8,73.7 71.4,63.3 76.1,53.8 	"/>
	<polygon fill="#FFFBE3" points="93.5,66 86.5,64.3 85.4,54.4 	"/>
	<line fill="none" stroke="#FFE05C" stroke-width="0.2" stroke-miterlimit="10" x1="15.5" y1="60.5" x2="22.4" y2="54.6"/>
	<line fill="none" stroke="#FFE05C" stroke-width="0.2" stroke-miterlimit="10" x1="47.2" y1="59" x2="50.8" y2="46.1"/>
	<line fill="none" stroke="#FFE05C" stroke-width="0.2" stroke-miterlimit="10" x1="50.5" y1="58.4" x2="50.8" y2="46.1"/>
	<line fill="none" stroke="#FFE05C" stroke-width="0.2" stroke-miterlimit="10" x1="54.8" y1="64.6" x2="50.8" y2="46.1"/>
	<line fill="none" stroke="#FFE05C" stroke-width="0.2" stroke-miterlimit="10" x1="54.8" y1="64.4" x2="56" y2="39.8"/>
	<line fill="none" stroke="#FFE05C" stroke-width="0.2" stroke-miterlimit="10" x1="50.8" y1="46.3" x2="55.9" y2="40"/>
	<line fill="none" stroke="#FFE05C" stroke-width="0.2" stroke-miterlimit="10" x1="60" y1="48" x2="56" y2="39.9"/>
	<line fill="none" stroke="#FFE05C" stroke-width="0.2" stroke-miterlimit="10" x1="60.5" y1="44.5" x2="59.3" y2="46.4"/>
	<line fill="none" stroke="#FFE05C" stroke-width="0.2" stroke-miterlimit="10" x1="60.4" y1="44.7" x2="66.2" y2="55.8"/>
	<line fill="none" stroke="#FFE05C" stroke-width="0.2" stroke-miterlimit="10" x1="60" y1="48" x2="66.2" y2="55.8"/>
	<line fill="none" stroke="#FFE05C" stroke-width="0.2" stroke-miterlimit="10" x1="73.9" y1="51.5" x2="76.9" y2="48.4"/>
	<line fill="none" stroke="#FFE05C" stroke-width="0.2" stroke-miterlimit="10" x1="76" y1="53.6" x2="76.9" y2="48.4"/>
	<line fill="none" stroke="#FFE05C" stroke-width="0.2" stroke-miterlimit="10" x1="76.1" y1="53.8" x2="73.9" y2="51.5"/>
	<line fill="none" stroke="#FFE05C" stroke-width="0.2" stroke-miterlimit="10" x1="25.6" y1="56.8" x2="30.3" y2="48.1"/>
	<line fill="none" stroke="#FFE05C" stroke-width="0.2" stroke-miterlimit="10" x1="29.4" y1="66.5" x2="30.3" y2="48.1"/>
	<line fill="none" stroke="#FFE05C" stroke-width="0.2" stroke-miterlimit="10" x1="29.4" y1="66.5" x2="25.6" y2="56.8"/>
	<line fill="none" stroke="#FFE05C" stroke-width="0.25" stroke-miterlimit="10" x1="13.9" y1="67.3" x2="15.5" y2="60.5"/>
	<line fill="none" stroke="#FFE05C" stroke-width="0.2" stroke-miterlimit="10" x1="21.6" y1="58.7" x2="15.5" y2="60.5"/>
	<line fill="none" stroke="#FFE05C" stroke-width="0.2" stroke-miterlimit="10" x1="10.2" y1="74.1" x2="8" y2="68.6"/>
	<line fill="none" stroke="#FFE05C" stroke-width="0.2" stroke-miterlimit="10" x1="7.9" y1="68.7" x2="13.9" y2="67.3"/>
	<line fill="none" stroke="#FFE05C" stroke-width="0.2" stroke-miterlimit="10" x1="60" y1="48.1" x2="60.4" y2="44.9"/>
	<line fill="none" stroke="#FFE05C" stroke-width="0.2" stroke-miterlimit="10" x1="93.5" y1="66" x2="99.7" y2="61.3"/>
	<line fill="none" stroke="#FFE05C" stroke-width="0.2" stroke-miterlimit="10" x1="93.5" y1="66" x2="99.5" y2="65.5"/>
	<line fill="none" stroke="#FFE05C" stroke-width="0.2" stroke-miterlimit="10" x1="99.7" y1="61.3" x2="99.7" y2="65.5"/>
	<line fill="none" stroke="#FFE05C" stroke-width="0.2" stroke-miterlimit="10" x1="13.9" y1="67.3" x2="10.2" y2="74.1"/>
</g>
<g>
	<path fill="none" stroke="#E2CE8D" stroke-width="0.1" stroke-miterlimit="10" d="M14,67.3"/>
	<path fill="none" stroke="#E2CE8D" stroke-width="0.1" stroke-miterlimit="10" d="M15.4,60.5"/>
	<line fill="none" stroke="#E2CE8D" stroke-width="0.1" stroke-miterlimit="10" x1="30.4" y1="48.2" x2="28.1" y2="55.4"/>
	<line fill="none" stroke="#E2CE8D" stroke-width="0.1" stroke-miterlimit="10" x1="28.1" y1="55.3" x2="25.6" y2="56.8"/>
	<line fill="none" stroke="#E2CE8D" stroke-width="0.1" stroke-miterlimit="10" x1="28.1" y1="55.4" x2="29.4" y2="66.5"/>
	<path fill="none" stroke="#E2CE8D" stroke-width="0.1" stroke-miterlimit="10" d="M29.4,66.5"/>
	<path fill="none" stroke="#E2CE8D" stroke-width="0.1" stroke-miterlimit="10" d="M30.4,48.2"/>
	<line fill="none" stroke="#E2CE8D" stroke-width="0.1" stroke-miterlimit="10" x1="44.5" y1="60.9" x2="47.3" y2="59"/>
	<line fill="none" stroke="#E2CE8D" stroke-width="0.1" stroke-miterlimit="10" x1="47.2" y1="59" x2="50.5" y2="58.4"/>
	<line fill="none" stroke="#E2CE8D" stroke-width="0.1" stroke-miterlimit="10" x1="30.3" y1="48.1" x2="33.8" y2="53.7"/>
	<line fill="none" stroke="#E2CE8D" stroke-width="0.1" stroke-miterlimit="10" x1="33.8" y1="53.6" x2="29.4" y2="66.5"/>
	<line fill="none" stroke="#E2CE8D" stroke-width="0.1" stroke-miterlimit="10" x1="33.7" y1="53.5" x2="36.5" y2="55.1"/>
	<line fill="none" stroke="#E2CE8D" stroke-width="0.1" stroke-miterlimit="10" x1="36.5" y1="55.1" x2="36.8" y2="74.8"/>
	<line fill="none" stroke="#E2CE8D" stroke-width="0.1" stroke-miterlimit="10" x1="36.6" y1="55.3" x2="39.1" y2="59.3"/>
	<line fill="none" stroke="#E2CE8D" stroke-width="0.1" stroke-miterlimit="10" x1="39.1" y1="59.3" x2="44.6" y2="60.9"/>
	<line fill="none" stroke="#E2CE8D" stroke-width="0.1" stroke-miterlimit="10" x1="44.5" y1="60.9" x2="41.4" y2="70.3"/>
	<line fill="none" stroke="#E2CE8D" stroke-width="0.1" stroke-miterlimit="10" x1="41.4" y1="70.3" x2="45.2" y2="79.4"/>
	<line fill="none" stroke="#E2CE8D" stroke-width="0.1" stroke-miterlimit="10" x1="44.6" y1="60.9" x2="44.9" y2="71.3"/>
	<line fill="none" stroke="#E2CE8D" stroke-width="0.1" stroke-miterlimit="10" x1="50.5" y1="58.4" x2="44.9" y2="71.1"/>
	<line fill="none" stroke="#E2CE8D" stroke-width="0.1" stroke-miterlimit="10" x1="21.6" y1="58.7" x2="25.6" y2="56.8"/>
	<line fill="none" stroke="#E2CE8D" stroke-width="0.1" stroke-miterlimit="10" x1="25.7" y1="56.8" x2="22.4" y2="54.6"/>
	<line fill="none" stroke="#E2CE8D" stroke-width="0.1" stroke-miterlimit="10" x1="22.4" y1="54.6" x2="21.6" y2="58.7"/>
	<line fill="none" stroke="#E2CE8D" stroke-width="0.1" stroke-miterlimit="10" x1="13.8" y1="67.4" x2="21.6" y2="58.7"/>
	<line fill="none" stroke="#E2CE8D" stroke-width="0.1" stroke-miterlimit="10" x1="13.9" y1="67.3" x2="15.8" y2="72.9"/>
	<line fill="none" stroke="#E2CE8D" stroke-width="0.1" stroke-miterlimit="10" x1="7.9" y1="68.7" x2="2.1" y2="74.7"/>
	<line fill="none" stroke="#E2CE8D" stroke-width="0.1" stroke-miterlimit="10" x1="39.2" y1="59.4" x2="36.8" y2="74.9"/>
	<line fill="none" stroke="#E2CE8D" stroke-width="0.1" stroke-miterlimit="10" x1="50.5" y1="58.4" x2="54.8" y2="64.7"/>
	<line fill="none" stroke="#E2CE8D" stroke-width="0.1" stroke-miterlimit="10" x1="54.8" y1="64.7" x2="44.9" y2="71.3"/>
	<line fill="none" stroke="#E2CE8D" stroke-width="0.1" stroke-miterlimit="10" x1="44.9" y1="71.3" x2="45.2" y2="79.4"/>
	<line fill="none" stroke="#E2CE8D" stroke-width="0.1" stroke-miterlimit="10" x1="66.1" y1="55.9" x2="54.8" y2="64.7"/>
	<line fill="none" stroke="#E2CE8D" stroke-width="0.1" stroke-miterlimit="10" x1="60" y1="48.1" x2="55.3" y2="52.8"/>
	<line fill="none" stroke="#E2CE8D" stroke-width="0.1" stroke-miterlimit="10" x1="60" y1="48.3" x2="54.8" y2="64.8"/>
	<line fill="none" stroke="#E2CE8D" stroke-width="0.1" stroke-miterlimit="10" x1="63.5" y1="50.4" x2="70.3" y2="53.5"/>
	<line fill="none" stroke="#E2CE8D" stroke-width="0.1" stroke-miterlimit="10" x1="70.3" y1="53.5" x2="74" y2="51.4"/>
	<line fill="none" stroke="#E2CE8D" stroke-width="0.1" stroke-miterlimit="10" x1="76.9" y1="48.4" x2="83.7" y2="58.8"/>
	<line fill="none" stroke="#E2CE8D" stroke-width="0.1" stroke-miterlimit="10" x1="82.3" y1="56.8" x2="85.4" y2="54.4"/>
	<line fill="none" stroke="#E2CE8D" stroke-width="0.1" stroke-miterlimit="10" x1="85.4" y1="54.4" x2="83.6" y2="58.7"/>
	<line fill="none" stroke="#E2CE8D" stroke-width="0.1" stroke-miterlimit="10" x1="85.4" y1="54.4" x2="93.5" y2="66"/>
	<line fill="none" stroke="#E2CE8D" stroke-width="0.1" stroke-miterlimit="10" x1="83.6" y1="58.7" x2="86.5" y2="64.5"/>
	<line fill="none" stroke="#E2CE8D" stroke-width="0.1" stroke-miterlimit="10" x1="86.5" y1="64.5" x2="90.4" y2="78.5"/>
	<line fill="none" stroke="#E2CE8D" stroke-width="0.1" stroke-miterlimit="10" x1="90.5" y1="78.5" x2="83.7" y2="58.8"/>
	<line fill="none" stroke="#E2CE8D" stroke-width="0.1" stroke-miterlimit="10" x1="76" y1="53.9" x2="83.6" y2="58.7"/>
	<line fill="none" stroke="#E2CE8D" stroke-width="0.1" stroke-miterlimit="10" x1="76.1" y1="53.9" x2="90.3" y2="78.4"/>
	<line fill="none" stroke="#E2CE8D" stroke-width="0.1" stroke-miterlimit="10" x1="76" y1="53.8" x2="72.8" y2="73.7"/>
	<line fill="none" stroke="#E2CE8D" stroke-width="0.1" stroke-miterlimit="10" x1="72.8" y1="73.7" x2="70.2" y2="53.4"/>
	<line fill="none" stroke="#E2CE8D" stroke-width="0.1" stroke-miterlimit="10" x1="70.2" y1="53.5" x2="69.2" y2="67.5"/>
	<line fill="none" stroke="#E2CE8D" stroke-width="0.1" stroke-miterlimit="10" x1="69.2" y1="67.5" x2="66.1" y2="55.9"/>
	<line fill="none" stroke="#E2CE8D" stroke-width="0.1" stroke-miterlimit="10" x1="66.1" y1="55.9" x2="70.2" y2="53.5"/>
	<line fill="none" stroke="#E2CE8D" stroke-width="0.1" stroke-miterlimit="10" x1="29.4" y1="66.5" x2="36.8" y2="74.9"/>
	<line fill="none" stroke="#E2CE8D" stroke-width="0.1" stroke-miterlimit="10" x1="36.7" y1="69.1" x2="29.4" y2="66.5"/>
	<line fill="none" stroke="#E2CE8D" stroke-width="0.1" stroke-miterlimit="10" x1="29.4" y1="66.5" x2="21.6" y2="58.7"/>
	<line fill="none" stroke="#E2CE8D" stroke-width="0.1" stroke-miterlimit="10" x1="21.7" y1="58.7" x2="25.6" y2="73.7"/>
	<line fill="none" stroke="#E2CE8D" stroke-width="0.1" stroke-miterlimit="10" x1="21.7" y1="58.6" x2="21.9" y2="66.8"/>
	<line fill="none" stroke="#E2CE8D" stroke-width="0.1" stroke-miterlimit="10" x1="21.9" y1="66.6" x2="25.6" y2="73.8"/>
	<line fill="none" stroke="#E2CE8D" stroke-width="0.1" stroke-miterlimit="10" x1="21.9" y1="66.7" x2="15.8" y2="72.9"/>
	<line fill="none" stroke="#E2CE8D" stroke-width="0.1" stroke-miterlimit="10" x1="41.4" y1="70.3" x2="36.9" y2="77.2"/>
	<line fill="none" stroke="#E2CE8D" stroke-width="0.1" stroke-miterlimit="10" x1="37" y1="77.1" x2="38.3" y2="81.9"/>
	<line fill="none" stroke="#E2CE8D" stroke-width="0.1" stroke-miterlimit="10" x1="38.3" y1="81.9" x2="41.4" y2="70.3"/>
	<line fill="none" stroke="#E2CE8D" stroke-width="0.1" stroke-miterlimit="10" x1="38.3" y1="81.9" x2="45.2" y2="79.4"/>
	<line fill="none" stroke="#E2CE8D" stroke-width="0.1" stroke-miterlimit="10" x1="37" y1="77.1" x2="28.1" y2="81.7"/>
	<line fill="none" stroke="#E2CE8D" stroke-width="0.1" stroke-miterlimit="10" x1="28.1" y1="81.7" x2="38.3" y2="81.9"/>
	<line fill="none" stroke="#E2CE8D" stroke-width="0.1" stroke-miterlimit="10" x1="33.4" y1="79" x2="34.8" y2="75.5"/>
	<line fill="none" stroke="#E2CE8D" stroke-width="0.1" stroke-miterlimit="10" x1="34.8" y1="75.5" x2="38.8" y2="74.4"/>
	<line fill="none" stroke="#E2CE8D" stroke-width="0.1" stroke-miterlimit="10" x1="93.5" y1="66" x2="86.5" y2="64.4"/>
	<line fill="none" stroke="#E2CE8D" stroke-width="0.1" stroke-miterlimit="10" x1="93.5" y1="66" x2="90.4" y2="78.5"/>
	<line fill="none" stroke="#E2CE8D" stroke-width="0.1" stroke-miterlimit="10" x1="99.3" y1="84.2" x2="92" y2="72"/>
	<line fill="none" stroke="#E2CE8D" stroke-width="0.1" stroke-miterlimit="10" x1="99.7" y1="65.5" x2="92" y2="72"/>
	<line fill="none" stroke="#E2CE8D" stroke-width="0.1" stroke-miterlimit="10" x1="99.7" y1="65.6" x2="99.3" y2="84.2"/>
	<line fill="none" stroke="#E2CE8D" stroke-width="0.1" stroke-miterlimit="10" x1="106.5" y1="80.5" x2="99.8" y2="65.5"/>
	<line fill="none" stroke="#E2CE8D" stroke-width="0.1" stroke-miterlimit="10" x1="99.6" y1="61.5" x2="111.7" y2="76.5"/>
	<line fill="none" stroke="#E2CE8D" stroke-width="0.1" stroke-miterlimit="10" x1="118" y1="77.4" x2="111.6" y2="76.5"/>
	<line fill="none" stroke="#E2CE8D" stroke-width="0.1" stroke-miterlimit="10" x1="99.3" y1="84.2" x2="90.3" y2="78.4"/>
	<line fill="none" stroke="#E2CE8D" stroke-width="0.1" stroke-miterlimit="10" x1="10.1" y1="74.1" x2="15.8" y2="72.9"/>
	<line fill="none" stroke="#E2CE8D" stroke-width="0.1" stroke-miterlimit="10" x1="54.8" y1="64.8" x2="55.7" y2="70.3"/>
	<line fill="none" stroke="#E2CE8D" stroke-width="0.1" stroke-miterlimit="10" x1="55.7" y1="70.2" x2="70" y2="82.9"/>
	<line fill="none" stroke="#E2CE8D" stroke-width="0.1" stroke-miterlimit="10" x1="70" y1="82.9" x2="68.3" y2="71.6"/>
	<line fill="none" stroke="#E2CE8D" stroke-width="0.1" stroke-miterlimit="10" x1="68.3" y1="71.6" x2="65.2" y2="65.6"/>
	<line fill="none" stroke="#E2CE8D" stroke-width="0.1" stroke-miterlimit="10" x1="65.2" y1="65.6" x2="54.8" y2="64.8"/>
	<line fill="none" stroke="#E2CE8D" stroke-width="0.1" stroke-miterlimit="10" x1="65.2" y1="65.6" x2="66.2" y2="55.8"/>
</g>
</svg>
