<?xml version="1.0" encoding="utf-8"?>
<!-- Generator: Adobe Illustrator 18.0.0, SVG Export Plug-In . SVG Version: 6.00 Build 0)  -->
<!DOCTYPE svg PUBLIC "-//W3C//DTD SVG 1.1//EN" "http://www.w3.org/Graphics/SVG/1.1/DTD/svg11.dtd">
<svg version="1.1" id="图层_1" xmlns="http://www.w3.org/2000/svg" xmlns:xlink="http://www.w3.org/1999/xlink" x="0px" y="0px"
	 viewBox="0 0 120 120" enable-background="new 0 0 120 120" xml:space="preserve">
<g>
	<path fill="none" stroke="#FFE05C" stroke-miterlimit="10" d="M37.5,76.8"/>
	<g>
		<polygon fill="#FFFBE3" stroke="#E2CE8D" stroke-width="0.2" stroke-miterlimit="10" points="59.2,41.9 63.7,42.3 37.5,71.8 
			32.8,71.9 		"/>
		<path fill="#F4E1C3" stroke="#E2CE8D" stroke-width="0.2" stroke-miterlimit="10" d="M63.7,42.3L37.6,71.6l26.9,28.6l26.8-29.6
			L63.7,42.3z M45.1,71.3l16.4-18.5l2.2-2.4l19.6,20.2L64.8,91.6L45.1,71.3z"/>
		<polygon fill="#ED9B58" stroke="#E2CE8D" stroke-width="0.2" stroke-miterlimit="10" points="78.7,70.4 61.5,52.8 63.7,50.4 
			83.3,70.5 		"/>
		<polygon fill="#F2BE97" points="62.5,89.2 78.7,70.4 83.3,70.5 64.8,91.6 		"/>
		<polygon fill="#EF8621" points="32.6,71.9 59.8,100.1 64.5,100.3 37.8,71.9 		"/>
	</g>
	<g>
		<polygon fill="none" stroke="#FFE05C" stroke-width="0.2" stroke-miterlimit="10" points="80.5,18.8 83.1,18.3 73.3,39.6 
			70.7,40.4 		"/>
		<path fill="#F2BE97" d="M83.1,18.3l-9.8,21.1l20.2,11.6l10.1-21.4L83.1,18.3z M77.6,38l6.1-13.4l0.8-1.8l14.6,8.1l-6.9,15.2
			L77.6,38z"/>
		<polygon fill="#F4E1C3" stroke="#E2CE8D" stroke-width="0.2" stroke-miterlimit="10" points="96.5,31.7 83.7,24.6 84.5,22.9 
			99.1,30.9 		"/>
		<polygon fill="#ED9B58" stroke="#E2CE8D" stroke-width="0.2" stroke-miterlimit="10" points="90.5,45.2 96.5,31.7 99.1,30.9 
			92.2,46.1 		"/>
		<polygon fill="#EF8621" points="70.6,40.5 90.9,51.8 93.6,51.1 73.5,39.6 		"/>
	</g>
	<g>
		<polygon fill="none" stroke="#FFE05C" stroke-width="0.2" stroke-miterlimit="10" points="39.8,24.5 41.9,24.3 32.3,40.2 
			30.2,40.6 		"/>
		<path fill="#ED9B58" stroke="#E2CE8D" stroke-width="0.2" stroke-miterlimit="10" d="M41.9,24.3l-9.5,15.8L47.2,51L57,35
			L41.9,24.3z M35.8,39.3l6-10l0.8-1.3l10.8,7.6L46.6,47L35.8,39.3z"/>
		<polygon fill="#F4E1C3" stroke="#E2CE8D" stroke-width="0.2" stroke-miterlimit="10" points="51.2,36 41.8,29.3 42.6,28 
			53.4,35.6 		"/>
		<polygon fill="#EF8621" points="45.4,46.1 51.2,36 53.4,35.6 46.6,47 		"/>
		<polygon fill="#FFFBE3" stroke="#E2CE8D" stroke-width="0.2" stroke-miterlimit="10" points="30.1,40.6 45,51.3 47.2,51 
			32.5,40.2 		"/>
	</g>
	<g>
		<polygon fill="none" stroke="#FFE05C" stroke-width="0.2" stroke-miterlimit="10" points="16.7,58.7 17,57.5 25,65.7 24.9,67 		
			"/>
		<path fill="#F4E1C3" stroke="#FFE05C" stroke-width="0.2" stroke-miterlimit="10" d="M17,57.5l8,8.1l9.3-6.5l-8-8.3L17,57.5z
			 M25.1,63.5l-5-5.1l-0.7-0.7l6.6-4.8l5.7,5.8L25.1,63.5z"/>
		<polygon fill="#ED9B58" stroke="#E2CE8D" stroke-width="0.2" stroke-miterlimit="10" points="25.7,54.2 20,58.5 19.4,57.8 
			25.9,53 		"/>
		<polygon fill="none" stroke="#FFE05C" stroke-width="0.2" stroke-miterlimit="10" points="30.9,59.3 25.7,54.2 25.9,53 31.7,58.7 
					"/>
		<polygon fill="#EF8621" stroke="#E2CE8D" stroke-width="0.2" stroke-miterlimit="10" points="24.9,67 34,60.4 34.2,59.1 25,65.6 
					"/>
	</g>
</g>
</svg>
