<?xml version="1.0" encoding="utf-8"?>
<!-- Generator: Adobe Illustrator 18.0.0, SVG Export Plug-In . SVG Version: 6.00 Build 0)  -->
<!DOCTYPE svg PUBLIC "-//W3C//DTD SVG 1.1//EN" "http://www.w3.org/Graphics/SVG/1.1/DTD/svg11.dtd">
<svg version="1.1" id="图层_1" xmlns="http://www.w3.org/2000/svg" xmlns:xlink="http://www.w3.org/1999/xlink" x="0px" y="0px"
	 viewBox="0 0 60 60" enable-background="new 0 0 60 60" xml:space="preserve">
<g>
	<path fill="#FF926E" d="M35.2,59.8c9.7,0,18.4-3.9,24.8-10.2V0H10.2C4,6.3,0.1,15.1,0.1,24.7C0.1,44.1,15.8,59.8,35.2,59.8z"/>
</g>
<g>
	<path fill="#FFFFFF" d="M50.2,8.2H11.3c-1.4,0-2.6,1.2-2.6,2.7V39c0,1.5,1.2,2.7,2.6,2.7h13.5c-0.4,5.4-2.9,7-2.9,7h17.6
		c0,0-2.5-1.6-2.9-6.9v-0.2h13.6c1.4,0,2.6-1.2,2.6-2.7V10.9C52.8,9.4,51.6,8.2,50.2,8.2z"/>
	<rect x="11.9" y="11.7" fill="#ADEBF6" width="37.7" height="26.3"/>
	<path fill="#E25D34" d="M25.9,20.1c0-0.3,0.1-0.6,0.1-0.8c0-0.3,0-0.6-0.1-0.8l-1.8-0.3c-0.1-0.2-0.1-0.3-0.2-0.5l1-1.4
		c-0.3-0.5-0.7-0.9-1.2-1.2l-1.4,1C22.3,16.1,22.1,16,22,16l-0.3-1.8c-0.3,0-0.6-0.1-0.8-0.1c-0.3,0-0.6,0-0.8,0.1L19.7,16
		c-0.2,0.1-0.3,0.1-0.5,0.2l-1.4-1c-0.5,0.3-0.9,0.7-1.2,1.2l1,1.4c-0.1,0.1-0.1,0.3-0.2,0.5l-1.8,0.3c0,0.3-0.1,0.6-0.1,0.8
		c0,0.3,0,0.6,0.1,0.8l1.8,0.3c0.1,0.2,0.1,0.3,0.2,0.5l-1,1.4c0.3,0.5,0.7,0.9,1.2,1.2l1.4-1c0.1,0.1,0.3,0.1,0.5,0.2l0.3,1.8
		c0.3,0,0.6,0.1,0.8,0.1c0.3,0,0.6,0,0.8-0.1l0.3-1.8c0.2-0.1,0.3-0.1,0.5-0.2l1.4,1c0.5-0.3,0.9-0.7,1.2-1.2l-1-1.4
		c0.1-0.1,0.1-0.3,0.2-0.5L25.9,20.1z"/>
	<circle fill="#ADEBF6" cx="20.8" cy="19.3" r="2.1"/>
	<path fill="#475059" d="M44.7,18.9c-3.4-4-9.4-4.4-13.4-1c-4,3.4-4.4,9.4-1,13.4c3.1,3.6,8.3,4.3,12.2,1.9l8.5,9.9
		c0.6,0.6,1.5,0.7,2.2,0.2c0.6-0.6,0.7-1.5,0.2-2.2l-8.5-9.9C47.7,27.7,47.8,22.5,44.7,18.9z"/>
	<circle fill="#FFFFFF" cx="37.5" cy="25.1" r="6.7"/>
	<path fill="#E25D34" x="100" y="100" d="M42.6,25.9c0-0.3,0.1-0.6,0.1-0.8c0-0.3,0-0.6-0.1-0.8L40.8,24c-0.1-0.2-0.1-0.3-0.2-0.5l1-1.4
		c-0.3-0.5-0.7-0.9-1.2-1.2l-1.4,1c-0.1-0.1-0.3-0.1-0.5-0.2L38.3,20c-0.3,0-0.6-0.1-0.8-0.1c-0.3,0-0.6,0-0.8,0.1l-0.3,1.8
		c-0.2,0.1-0.3,0.1-0.5,0.2l-1.4-1c-0.5,0.3-0.9,0.7-1.2,1.2l1,1.4c-0.1,0.1-0.1,0.3-0.2,0.5l-1.8,0.3c0,0.3-0.1,0.6-0.1,0.8
		c0,0.3,0,0.6,0.1,0.8l1.8,0.3c0.1,0.2,0.1,0.3,0.2,0.5l-1,1.4c0.3,0.5,0.7,0.9,1.2,1.2l1.4-1c0.1,0.1,0.3,0.1,0.5,0.2l0.3,1.8
		c0.3,0,0.6,0.1,0.8,0.1c0.3,0,0.6,0,0.8-0.1l0.3-1.8c0.2-0.1,0.3-0.1,0.5-0.2l1.4,1c0.5-0.3,0.9-0.7,1.2-1.2l-1-1.4
		c0.1-0.1,0.1-0.3,0.2-0.5L42.6,25.9z">
		<animateTransform attributeName="transform" type="rotate" from="0 37.2 25.1" to="360 37.2 25.1" begin="0s" dur="8s" repeatCount="indefinite"/> 
	</path>

	<circle fill="#FFFFFF" cx="37.2" cy="25.1" r="2.1"/>
	<path fill="#FFFFFF" d="M24.5,34.5l0-6.7l-6.7,0l2.4,2.4L17.5,33c-0.5,0.5-0.5,1.3,0,1.8c0.3,0.3,0.6,0.4,0.9,0.4
		c0.3,0,0.7-0.1,0.9-0.4l2.8-2.8L24.5,34.5z"/>
</g>
</svg>
