<?xml version="1.0" encoding="utf-8"?>
<!-- Generator: Adobe Illustrator 18.0.0, SVG Export Plug-In . SVG Version: 6.00 Build 0)  -->
<!DOCTYPE svg PUBLIC "-//W3C//DTD SVG 1.1//EN" "http://www.w3.org/Graphics/SVG/1.1/DTD/svg11.dtd">
<svg version="1.1" id="图层_1" xmlns="http://www.w3.org/2000/svg" xmlns:xlink="http://www.w3.org/1999/xlink" x="0px" y="0px"
	 viewBox="0 0 60 60" enable-background="new 0 0 60 60" xml:space="preserve">
<g>
	<path fill="#FFDB7A" d="M35.2,59.8c9.7,0,18.4-3.9,24.8-10.2V0H10.2C4,6.3,0.1,15.1,0.1,24.7C0.1,44.1,15.8,59.8,35.2,59.8z"/>
</g>
<g>
	<path fill="#475059" d="M41.2,42.8c0,1.4-1.2,2.6-2.6,2.6H22c-1.4,0-2.6-1.2-2.6-2.6V14.2c0-1.4,1.2-2.6,2.6-2.6h16.5
		c1.4,0,2.6,1.2,2.6,2.6C41.2,14.2,41.2,42.8,41.2,42.8z"/>
	<rect x="21.6" y="13.9" fill="#ADEBF6" width="17.5" height="26"/>
	<circle fill="#F1F2F3" cx="30.2" cy="42.7" r="1.8"/>
	<path fill="#FFFFFF" d="M50.5,35.6h-4.6v-3.2c0-0.4-0.4-0.7-0.7-0.7H31v-5.3h14.8c0.4,0,0.7-0.4,0.7-0.7c0-0.4-0.4-0.7-0.7-0.7H31
		v-4.6h12.6c0.4,0,0.7-0.4,0.7-0.7v-3h4.9c0.4,0,0.7-0.4,0.7-0.7c0-0.4-0.4-0.7-0.7-0.7h-5.8c-0.4,0-0.7,0.4-0.7,0.7v3H31v-0.6
		c0-0.4-0.4-0.7-0.7-0.7c-0.4,0-0.7,0.4-0.7,0.7v2.6H26c-0.4,0-0.7,0.4-0.7,0.7v1.9H16v-5.2c0-0.4-0.4-0.7-0.7-0.7H9.5
		c-0.4,0-0.7,0.4-0.7,0.7c0,0.4,0.4,0.7,0.7,0.7h4.9v5.2c0,0.4,0.4,0.7,0.7,0.7H26c0.4,0,0.7-0.4,0.7-0.7v-1.9h2.8v6.5h-6
		c-0.4,0-0.7,0.4-0.7,0.7v4.7h-7v-2.5c0-0.4-0.4-0.7-0.7-0.7H7.7C7.4,31,7,31.4,7,31.7c0,0.4,0.4,0.7,0.7,0.7h6.5V35
		c0,0.4,0.4,0.7,0.7,0.7h8.5c0.4,0,0.7-0.4,0.7-0.7v-4.7h5.2v5.2c0,0.4,0.4,0.7,0.7,0.7c0.4,0,0.7-0.4,0.7-0.7v-2.4h13.4v3.2
		c0,0.4,0.4,0.7,0.7,0.7h5.4c0.4,0,0.7-0.4,0.7-0.7C51.3,36,50.9,35.6,50.5,35.6z"/>
	<path fill="#FF926E" d="M13.1,21.3c0,0.6-0.5,1.2-1.2,1.2H6c-0.6,0-1.2-0.5-1.2-1.2v-5.9c0-0.6,0.5-1.2,1.2-1.2h5.9
		c0.6,0,1.2,0.5,1.2,1.2V21.3z"/>
	<path fill="#ADEBF6" d="M11.3,34.6c0,0.6-0.5,1.2-1.2,1.2H4.4c-0.6,0-1.2-0.5-1.2-1.2v-5.9c0-0.6,0.5-1.2,1.2-1.2h5.9
		c0.6,0,1.2,0.5,1.2,1.2v5.9H11.3z"/>
	<path fill="#E25D34" d="M54.5,18.8c0,0.6-0.5,1.2-1.2,1.2h-5.9c-0.6,0-1.2-0.5-1.2-1.2v-5.9c0-0.6,0.5-1.2,1.2-1.2h5.9
		c0.6,0,1.2,0.5,1.2,1.2V18.8z"/>
	<path fill="#FF926E" d="M51.4,28.5c0,0.6-0.5,1.2-1.2,1.2h-5.9c-0.6,0-1.2-0.5-1.2-1.2v-5.9c0-0.6,0.5-1.2,1.2-1.2h5.9
		c0.6,0,1.2,0.5,1.2,1.2V28.5z"/>
	<path fill="#F1F2F3" d="M56.4,39.3c0,0.6-0.5,1.2-1.2,1.2h-5.9c-0.6,0-1.2-0.5-1.2-1.2v-5.9c0-0.6,0.5-1.2,1.2-1.2h5.9
		c0.6,0,1.2,0.5,1.2,1.2V39.3z"/>
	<circle fill="#E25D34" cx="30.1" cy="19.5" r="0.6"/>
</g>
</svg>
