<?xml version="1.0" encoding="utf-8"?>
<!-- Generator: Adobe Illustrator 18.0.0, SVG Export Plug-In . SVG Version: 6.00 Build 0)  -->
<!DOCTYPE svg PUBLIC "-//W3C//DTD SVG 1.1//EN" "http://www.w3.org/Graphics/SVG/1.1/DTD/svg11.dtd">
<svg version="1.1" id="图层_1" xmlns="http://www.w3.org/2000/svg" xmlns:xlink="http://www.w3.org/1999/xlink" x="0px" y="0px"
	 viewBox="0 0 400 400" enable-background="new 0 0 400 400" xml:space="preserve">
<path fill="#FFFFFF" d="M251.3,54.7c-3.7,0-7.4,0.3-11.1,0.3H31.3l0,49.6l115.7,0l-2.2,3.3c-3.6,4.7-6.8,9.6-9.7,14.8L23.3,292.9
	L21.7,323h213.2c5.4,0,10.9,0.8,16.5,0.8c73.8,0,133.6-60.3,133.6-134.6C385,115,325.1,54.7,251.3,54.7z M71.9,288.6l48.2-74.1
	c5.5,29.2,20.4,55,41.4,74.2L71.9,288.6z M251.3,287c-53.3,0-96.6-43.8-96.6-97.4c0-17.7,4.7-34.2,13-48.3l5.1-7.9
	c17.5-24.2,46.1-39.9,78.5-39.9c45.9,0,84.2,32.4,94.1,76.4H238v36h108.7C339.3,251,299.4,287,251.3,287z"/>
</svg>
